HIERARCHY
ROOT Hips
{
  OFFSET -1.50901 95.7467 -1.8478
  CHANNELS 6 Xposition Yposition Zposition Zrotation Xrotation Yrotation
  JOINT Spine
  {
    OFFSET 0 10.1816 0.1315
    CHANNELS 6 Xposition Yposition Zposition Zrotation Xrotation Yrotation
    JOINT Spine1
    {
      OFFSET 0 10.0835 -1.0008
      CHANNELS 6 Xposition Yposition Zposition Zrotation Xrotation Yrotation
      JOINT Spine2
      {
        OFFSET 0 9.1 -1.3734
        CHANNELS 6 Xposition Yposition Zposition Zrotation Xrotation Yrotation
        JOINT Neck
        {
          OFFSET 0 16.6717 -2.5162
          CHANNELS 6 Xposition Yposition Zposition Zrotation Xrotation Yrotation
          JOINT Head
          {
            OFFSET 0 9.6179 1.685
            CHANNELS 6 Xposition Yposition Zposition Zrotation Xrotation Yrotation
            JOINT HeadTop_End
            {
              OFFSET 0 17.8152 2.585
              CHANNELS 6 Xposition Yposition Zposition Zrotation Xrotation Yrotation
              End Site
              {
                OFFSET 0 0 0
              }
            }
            JOINT LeftEye
            {
              OFFSET 3.0676 6.4095 9.2836
              CHANNELS 6 Xposition Yposition Zposition Zrotation Xrotation Yrotation
              End Site
              {
                OFFSET 0 0 0
              }
            }
            JOINT RightEye
            {
              OFFSET -3.0676 6.4095 9.2835
              CHANNELS 6 Xposition Yposition Zposition Zrotation Xrotation Yrotation
              End Site
              {
                OFFSET 0 0 0
              }
            }
          }
        }
        JOINT LeftShoulder
        {
          OFFSET 4.5704 10.946 -2.628
          CHANNELS 6 Xposition Yposition Zposition Zrotation Xrotation Yrotation
          JOINT LeftArm
          {
            OFFSET 10.5924 -0.5246 -2.2321
            CHANNELS 6 Xposition Yposition Zposition Zrotation Xrotation Yrotation
            JOINT LeftForeArm
            {
              OFFSET 27.8415 -0.0001 0
              CHANNELS 6 Xposition Yposition Zposition Zrotation Xrotation Yrotation
              JOINT LeftHand
              {
                OFFSET 28.3288 0 0
                CHANNELS 6 Xposition Yposition Zposition Zrotation Xrotation Yrotation
                JOINT LeftHandThumb1
                {
                  OFFSET 2.4661 -1.575 2.6824
                  CHANNELS 6 Xposition Yposition Zposition Zrotation Xrotation Yrotation
                  JOINT LeftHandThumb2
                  {
                    OFFSET 3.2298 -1.8647 1.8647
                    CHANNELS 6 Xposition Yposition Zposition Zrotation Xrotation Yrotation
                    JOINT LeftHandThumb3
                    {
                      OFFSET 2.6526 -1.5315 1.5315
                      CHANNELS 6 Xposition Yposition Zposition Zrotation Xrotation Yrotation
                      End Site
                      {
                        OFFSET 1.9546 -1.1285 1.1285
                      }
                    }
                  }
                }
                JOINT LeftHandIndex1
                {
                  OFFSET 9.1093 -0.5171 2.2601
                  CHANNELS 6 Xposition Yposition Zposition Zrotation Xrotation Yrotation
                  JOINT LeftHandIndex2
                  {
                    OFFSET 3.6764 0 0
                    CHANNELS 6 Xposition Yposition Zposition Zrotation Xrotation Yrotation
                    JOINT LeftHandIndex3
                    {
                      OFFSET 2.8831 0 0
                      CHANNELS 6 Xposition Yposition Zposition Zrotation Xrotation Yrotation
                      End Site
                      {
                        OFFSET 2.3927 0 0
                      }
                    }
                  }
                }
                JOINT LeftHandMiddle1
                {
                  OFFSET 9.5334 0 0
                  CHANNELS 6 Xposition Yposition Zposition Zrotation Xrotation Yrotation
                  JOINT LeftHandMiddle2
                  {
                    OFFSET 3.6982 0 0
                    CHANNELS 6 Xposition Yposition Zposition Zrotation Xrotation Yrotation
                    JOINT LeftHandMiddle3
                    {
                      OFFSET 2.9509 0 0
                      CHANNELS 6 Xposition Yposition Zposition Zrotation Xrotation Yrotation
                      End Site
                      {
                        OFFSET 2.8339 0 0
                      }
                    }
                  }
                }
                JOINT LeftHandRing1
                {
                  OFFSET 9.1045 -0.0439 -1.8651
                  CHANNELS 6 Xposition Yposition Zposition Zrotation Xrotation Yrotation
                  JOINT LeftHandRing2
                  {
                    OFFSET 3.154 0 0
                    CHANNELS 6 Xposition Yposition Zposition Zrotation Xrotation Yrotation
                    JOINT LeftHandRing3
                    {
                      OFFSET 2.9377 0 0
                      CHANNELS 6 Xposition Yposition Zposition Zrotation Xrotation Yrotation
                      End Site
                      {
                        OFFSET 2.6475 0 0
                      }
                    }
                  }
                }
                JOINT LeftHandPinky1
                {
                  OFFSET 8.0778 -0.4887 -3.8061
                  CHANNELS 6 Xposition Yposition Zposition Zrotation Xrotation Yrotation
                  JOINT LeftHandPinky2
                  {
                    OFFSET 3.6 0 0
                    CHANNELS 6 Xposition Yposition Zposition Zrotation Xrotation Yrotation
                    JOINT LeftHandPinky3
                    {
                      OFFSET 2.1142 0 0
                      CHANNELS 6 Xposition Yposition Zposition Zrotation Xrotation Yrotation
                      End Site
                      {
                        OFFSET 1.9757 0 0
                      }
                    }
                  }
                }
              }
            }
          }
        }
        JOINT RightShoulder
        {
          OFFSET -4.57 10.9462 -2.628
          CHANNELS 6 Xposition Yposition Zposition Zrotation Xrotation Yrotation
          JOINT RightArm
          {
            OFFSET -10.5928 -0.5248 -2.2321
            CHANNELS 6 Xposition Yposition Zposition Zrotation Xrotation Yrotation
            JOINT RightForeArm
            {
              OFFSET -27.8415 0 0
              CHANNELS 6 Xposition Yposition Zposition Zrotation Xrotation Yrotation
              JOINT RightHand
              {
                OFFSET -28.3288 0 0.0001
                CHANNELS 6 Xposition Yposition Zposition Zrotation Xrotation Yrotation
                JOINT RightHandPinky1
                {
                  OFFSET -8.0767 -0.4885 -3.806
                  CHANNELS 6 Xposition Yposition Zposition Zrotation Xrotation Yrotation
                  JOINT RightHandPinky2
                  {
                    OFFSET -3.6 0 0.0001
                    CHANNELS 6 Xposition Yposition Zposition Zrotation Xrotation Yrotation
                    JOINT RightHandPinky3
                    {
                      OFFSET -2.1142 0 0
                      CHANNELS 6 Xposition Yposition Zposition Zrotation Xrotation Yrotation
                      End Site
                      {
                        OFFSET -1.9757 0 0
                      }
                    }
                  }
                }
                JOINT RightHandRing1
                {
                  OFFSET -9.1036 -0.0439 -1.8651
                  CHANNELS 6 Xposition Yposition Zposition Zrotation Xrotation Yrotation
                  JOINT RightHandRing2
                  {
                    OFFSET -3.154 0 0
                    CHANNELS 6 Xposition Yposition Zposition Zrotation Xrotation Yrotation
                    JOINT RightHandRing3
                    {
                      OFFSET -2.9377 0 0
                      CHANNELS 6 Xposition Yposition Zposition Zrotation Xrotation Yrotation
                      End Site
                      {
                        OFFSET -2.6475 0 0
                      }
                    }
                  }
                }
                JOINT RightHandMiddle1
                {
                  OFFSET -9.5325 0 0
                  CHANNELS 6 Xposition Yposition Zposition Zrotation Xrotation Yrotation
                  JOINT RightHandMiddle2
                  {
                    OFFSET -3.6982 0 0
                    CHANNELS 6 Xposition Yposition Zposition Zrotation Xrotation Yrotation
                    JOINT RightHandMiddle3
                    {
                      OFFSET -2.9509 0 0
                      CHANNELS 6 Xposition Yposition Zposition Zrotation Xrotation Yrotation
                      End Site
                      {
                        OFFSET -2.8339 0 0.0001
                      }
                    }
                  }
                }
                JOINT RightHandIndex1
                {
                  OFFSET -9.1083 -0.5168 2.2601
                  CHANNELS 6 Xposition Yposition Zposition Zrotation Xrotation Yrotation
                  JOINT RightHandIndex2
                  {
                    OFFSET -3.6764 0 0
                    CHANNELS 6 Xposition Yposition Zposition Zrotation Xrotation Yrotation
                    JOINT RightHandIndex3
                    {
                      OFFSET -2.8831 0 0
                      CHANNELS 6 Xposition Yposition Zposition Zrotation Xrotation Yrotation
                      End Site
                      {
                        OFFSET -2.3927 0 0
                      }
                    }
                  }
                }
                JOINT RightHandThumb1
                {
                  OFFSET -2.4648 -1.5727 2.6826
                  CHANNELS 6 Xposition Yposition Zposition Zrotation Xrotation Yrotation
                  JOINT RightHandThumb2
                  {
                    OFFSET -3.2298 -1.8647 1.8647
                    CHANNELS 6 Xposition Yposition Zposition Zrotation Xrotation Yrotation
                    JOINT RightHandThumb3
                    {
                      OFFSET -2.6526 -1.5314 1.5314
                      CHANNELS 6 Xposition Yposition Zposition Zrotation Xrotation Yrotation
                      End Site
                      {
                        OFFSET -1.9546 -1.1285 1.1285
                      }
                    }
                  }
                }
              }
            }
          }
        }
      }
    }
  }
  JOINT LeftUpLeg
  {
    OFFSET 8.2078 -6.7517 -1.5996
    CHANNELS 6 Xposition Yposition Zposition Zrotation Xrotation Yrotation
    JOINT LeftLeg
    {
      OFFSET 0 -44.3705 0.2846
      CHANNELS 6 Xposition Yposition Zposition Zrotation Xrotation Yrotation
      JOINT LeftFoot
      {
        OFFSET 0 -44.4279 -2.9822
        CHANNELS 6 Xposition Yposition Zposition Zrotation Xrotation Yrotation
        JOINT LeftToeBase
        {
          OFFSET 0 -8.7287 10.7106
          CHANNELS 6 Xposition Yposition Zposition Zrotation Xrotation Yrotation
          End Site
          {
            OFFSET 0 -0.0007 9.2781
          }
        }
      }
    }
  }
  JOINT RightUpLeg
  {
    OFFSET -8.2078 -6.7517 -1.5996
    CHANNELS 6 Xposition Yposition Zposition Zrotation Xrotation Yrotation
    JOINT RightLeg
    {
      OFFSET 0 -44.3705 0.2862
      CHANNELS 6 Xposition Yposition Zposition Zrotation Xrotation Yrotation
      JOINT RightFoot
      {
        OFFSET 0 -44.4277 -2.9838
        CHANNELS 6 Xposition Yposition Zposition Zrotation Xrotation Yrotation
        JOINT RightToeBase
        {
          OFFSET 0 -8.7287 10.7106
          CHANNELS 6 Xposition Yposition Zposition Zrotation Xrotation Yrotation
          End Site
          {
            OFFSET 0 -0.0007 9.2781
          }
        }
      }
    }
  }
}
MOTION
Frames:	4
Frame Time:	0.0333333
-1.62804 101.509 0.169945 1.20186 -0.998374 -0.959279 0 10.1816 0.1315 -1.47057 0.721531 -0.294891 0 10.0835 -1.0008 2.11522 3.29303 -0.0876632 0 9.1 -1.3734 2.11166 3.29499 -0.110807 -1.77636e-015 16.6717 -2.5162 -2.86512 2.81581 1.09921 3.05311e-016 9.6179 1.685 -3.11701 -6.25291 2.37337 0 17.8152 2.585 -2.48481e-017 0 3.97569e-016 3.0676 6.4095 9.2836 -2.48481e-017 0 3.97569e-016 -3.0676 6.4095 9.2835 -2.48481e-017 0 3.97569e-016 4.5704 10.946 -2.628 -12 0.125003 7.59246 10.5924 -0.5246 -2.2321 -56.0447 52.5765 -7.79147 27.8415 -0.0001 0 -0.000197476 3.69407e-005 -34.0718 28.3288 -3.55271e-015 0 10.8242 -39.9179 8.53086 2.4661 -1.575 2.6824 11.4867 10.7769 19.2322 3.2298 -1.8647 1.8647 0.0375777 6.76468 13.1968 2.6526 -1.5315 1.5315 2.40573 0.997898 4.16231 9.1093 -0.5171 2.2601 -22.4973 -0.524481 2.63665 3.6764 -8.88178e-016 0 -14.8086 -0.228847 1.76085 2.8831 -7.10543e-015 0 -7.40517 -0.0574619 0.887838 9.5334 0 3.55271e-015 -25.1381 -0.652279 3.53667 3.6982 0 0 -17.7141 -0.326693 2.09633 2.9509 -7.10543e-015 0 -10.259 -0.244477 1.22723 9.1045 -0.0439 -1.8651 -28.4742 -0.832019 4.65667 3.154 -1.77636e-015 -3.55271e-015 -21.3125 -0.471293 2.50436 2.9377 0 0 -13.8289 -0.36323 1.64725 8.0778 -0.4887 -3.8061 -30.9403 -0.940297 9.71105 3.6 3.55271e-015 -1.77636e-015 -24.497 1.06982 -0.893421 2.1142 0 0 -16.6045 -0.287321 1.9688 -4.57 10.9462 -2.628 12 0.921988 -0.228313 -10.5928 -0.5248 -2.2321 57.0008 28.6438 8.75441 -27.8415 0 0 3.08877e-005 4.76392e-006 24.7018 -28.3288 0 0.0001 -14.6818 -48.5319 -14.3601 -8.0767 -0.4885 -3.806 33.4292 -1.14517 -6.39715 -3.6 -3.55271e-015 0.0001 28.402 -0.83714 -3.30884 -2.1142 0 0 22.6374 -0.536135 -2.67811 -9.1036 -0.0439 -1.8651 27.9378 -0.808254 -4.9711 -3.154 -1.77636e-015 -3.55271e-015 23.4695 -0.575734 -2.77116 -2.9377 7.10543e-015 0 17.5587 -0.324174 -2.09881 -9.5325 3.55271e-015 7.10543e-015 21.7973 -0.496951 -3.34389 -3.6982 -4.44089e-016 7.10543e-015 16.8421 -0.298439 -2.01565 -2.9509 0 0 11.0105 -0.12805 -1.33056 -9.1083 -0.5168 2.2601 16.8828 -0.299865 -2.02039 -3.6764 -4.44089e-015 0 11.5431 -0.140698 -1.39196 -2.8831 3.55271e-015 0 5.77198 -0.0352728 -0.699524 -2.4648 -1.5727 2.6826 -8.19958 4.70198 -25.605 -3.2298 -1.8647 1.8647 -1.25295 7.01688 -16.2426 -2.6526 -1.5314 1.5314 -2.87326 -0.0620195 -3.72789 8.2078 -6.7517 -1.5996 -1.09469 -9.42297 4.38597 0 -44.3705 0.2846 1.94659 23.4656 -6.67889 0 -44.4279 -2.9822 0.276734 -13.1388 0.175879 8.88178e-016 -8.7287 10.7106 2.70456e-007 -0.103928 2.35035e-006 -8.2078 -6.7517 -1.5996 -0.520301 -8.93366 -7.11817 0 -44.3705 0.2862 -0.230401 24.6526 7.48056 -8.88178e-016 -44.4277 -2.9838 -3.71237 -14.539 -0.648621 0 -8.7287 10.7106 1.02749e-006 -0.129338 2.90517e-006 
-1.69865 101.239 -0.400506 0.515491 -0.706757 -1.44134 1.11022e-016 10.1816 0.1315 -0.70194 3.5459 0.204967 -4.44089e-016 10.0835 -1.0008 1.9419 2.10716 -0.0117667 4.44089e-016 9.1 -1.3734 1.94004 2.10756 -0.0210779 0 16.6717 -2.5162 -2.83954 2.95396 1.06364 -5.55112e-017 9.6179 1.685 -3.01556 -6.62454 2.20903 -1.77636e-015 17.8152 2.585 -4.96962e-016 3.97569e-016 -0 3.0676 6.4095 9.2836 -4.96962e-016 3.97569e-016 -0 -3.0676 6.4095 9.2835 -4.96962e-016 3.97569e-016 -0 4.5704 10.946 -2.628 -12 0.164047 7.48487 10.5924 -0.5246 -2.2321 -55.8894 51.4044 -7.20745 27.8415 -0.0001 -7.10543e-015 -0.000206827 3.238e-006 -36.2888 28.3288 3.55271e-015 -3.55271e-015 11.3553 -40.2145 9.20897 2.4661 -1.575 2.6824 11.4879 10.7639 19.2192 3.2298 -1.8647 1.8647 0.0375777 6.76468 13.1968 2.6526 -1.5315 1.5315 2.40573 0.997898 4.16231 9.1093 -0.5171 2.2601 -22.4892 -0.524108 2.63575 3.6764 1.77636e-015 3.55271e-015 -14.8003 -0.228596 1.75989 2.8831 -3.55271e-015 0 -7.40102 -0.05739 0.887335 9.5334 -3.55271e-015 3.55271e-015 -24.9346 -0.641576 3.71007 3.6982 -1.77636e-015 -3.55271e-015 -17.5213 -0.319678 2.07422 2.9509 0 0 -10.0728 -0.274134 1.20528 9.1045 -0.0439 -1.8651 -28.0266 -0.805062 5.04929 3.154 0 0 -20.8917 -0.453064 2.45711 2.9377 7.10543e-015 0 -13.4169 -0.393087 1.59923 8.0778 -0.4887 -3.8061 -30.2753 -0.890461 10.3008 3.6 3.55271e-015 0 -23.9076 1.06021 -0.975243 2.1142 0 8.88178e-016 -16.0196 -0.267558 1.90127 -4.57 10.9462 -2.628 12 0.934735 -0.168448 -10.5928 -0.5248 -2.2321 57.132 26.6967 8.94687 -27.8415 0 0 7.91834e-006 -3.89773e-006 27.2858 -28.3288 -7.10543e-015 0.0001 -17.6373 -46.5224 -17.1024 -8.0767 -0.4885 -3.806 32.9712 -1.1095 -7.16793 -3.6 7.10543e-015 0.0001 27.7838 -0.801763 -3.24251 -2.1142 -7.10543e-015 0 22.0226 -0.507751 -2.609 -9.1036 -0.0439 -1.8651 27.7145 -0.793256 -5.49312 -3.154 0 -3.55271e-015 23.0269 -0.554506 -2.72173 -2.9377 -7.10543e-015 0 17.1265 -0.308525 -2.0487 -9.5325 0 -7.10543e-015 21.8368 -0.498264 -3.59103 -3.6982 1.33227e-015 0 16.6393 -0.291336 -1.99205 -2.9509 0 0 10.8156 -0.123567 -1.30731 -9.1083 -0.5168 2.2601 17.1328 -0.308752 -2.04943 -3.6764 1.77636e-015 0 11.5357 -0.140514 -1.39107 -2.8831 0 0 5.76827 -0.035218 -0.699079 -2.4648 -1.5727 2.6826 -8.20345 4.6846 -25.5933 -3.2298 -1.8647 1.8647 -1.25668 7.01555 -16.2412 -2.6526 -1.5314 1.5314 -2.87494 -0.0629495 -3.7274 8.2078 -6.7517 -1.5996 -0.470915 -11.0467 5.24967 8.88178e-016 -44.3705 0.2846 2.82412 25.4134 -7.43024 -8.88178e-016 -44.4279 -2.9822 0.0101308 -13.8221 0.180114 8.88178e-016 -8.7287 10.7106 -5.86111e-007 -0.489767 9.00742e-007 -8.2078 -6.7517 -1.5996 0.466585 -10.1471 -7.37412 1.77636e-015 -44.3705 0.2862 -0.879066 25.6456 8.12939 8.88178e-016 -44.4277 -2.9838 -3.7184 -14.6434 -0.728099 -1.77636e-015 -8.7287 10.7106 -1.99368e-007 -0.599732 6.78394e-007 
-1.72166 100.423 -0.943673 -0.169762 -0.297379 -1.90108 0 10.1816 0.1315 -0.0041659 6.39539 0.614259 0 10.0835 -1.0008 1.71817 0.975447 0.0515519 -4.44089e-016 9.1 -1.3734 1.71651 0.974665 0.0557976 8.88178e-016 16.6717 -2.5162 -2.82096 3.01043 1.02595 4.44089e-016 9.6179 1.685 -2.89584 -7.24478 2.03619 -1.77636e-015 17.8152 2.585 -1.98785e-016 1.59028e-015 -0 3.0676 6.4095 9.2836 -1.98785e-016 1.59028e-015 -0 -3.0676 6.4095 9.2835 -1.98785e-016 1.59028e-015 -0 4.5704 10.946 -2.628 -12 0.212953 7.44671 10.5924 -0.5246 -2.2321 -56.2642 49.7408 -6.22754 27.8415 -0.0001 0 -0.000194202 7.42747e-006 -38.6994 28.3288 0 5.32907e-015 13.1053 -41.2675 10.3573 2.4661 -1.575 2.6824 11.4891 10.7505 19.2058 3.2298 -1.8647 1.8647 0.0375777 6.76468 13.1968 2.6526 -1.5315 1.5315 2.40573 0.997898 4.16231 9.1093 -0.5171 2.2601 -22.483 -0.523832 2.63506 3.6764 4.44089e-015 0 -14.7927 -0.228351 1.759 2.8831 0 -3.55271e-015 -7.39723 -0.0573261 0.886879 9.5334 -7.10543e-015 -3.55271e-015 -24.714 -0.629966 3.90051 3.6982 0 3.55271e-015 -17.3108 -0.312102 2.05007 2.9509 -3.55271e-015 0 -9.86931 -0.301303 1.18124 9.1045 -0.0439 -1.8651 -27.5382 -0.775631 5.47998 3.154 0 3.55271e-015 -20.4311 -0.433507 2.40525 2.9377 0 1.77636e-015 -12.9658 -0.420112 1.54651 8.0778 -0.4887 -3.8061 -29.5485 -0.835861 10.9474 3.6 0 0 -23.2626 1.04872 -1.06466 2.1142 0 0 -15.3787 -0.246706 1.82706 -4.57 10.9462 -2.628 12 0.949944 -0.096952 -10.5928 -0.5248 -2.2321 57.5732 25.0942 8.80354 -27.8415 -7.10543e-015 -3.55271e-015 -9.17565e-006 1.89141e-006 30.0983 -28.3288 7.10543e-015 0.0001 -19.1225 -42.6456 -18.5166 -8.0767 -0.4885 -3.806 33.2349 -1.11966 -8.08888 -3.6 -5.32907e-015 0.0001 27.1109 -0.764071 -3.1699 -2.1142 7.10543e-015 0 21.3517 -0.477632 -2.53325 -9.1036 -0.0439 -1.8651 28.2352 -0.819605 -6.14628 -3.154 -3.55271e-015 0 22.5453 -0.531842 -2.66777 -2.9377 7.10543e-015 3.55271e-015 16.6549 -0.29188 -1.99388 -9.5325 0 0 22.6452 -0.534738 -3.94742 -3.6982 -4.44089e-016 -7.10543e-015 16.4197 -0.283748 -1.96649 -2.9509 0 -7.10543e-015 10.6034 -0.118782 -1.282 -9.1083 -0.5168 2.2601 18.1717 -0.347013 -2.16969 -3.6764 3.55271e-015 7.10543e-015 11.5309 -0.140402 -1.39051 -2.8831 0 7.10543e-015 5.76588 -0.0351938 -0.698784 -2.4648 -1.5727 2.6826 -8.20779 4.66526 -25.5801 -3.2298 -1.8647 1.8647 -1.26098 7.01401 -16.2396 -2.6526 -1.5314 1.5314 -2.87697 -0.0640632 -3.72682 8.2078 -6.7517 -1.5996 0.174757 -13.9153 5.68544 0 -44.3705 0.2846 3.80236 29.6867 -7.87909 -8.88178e-016 -44.4279 -2.9822 -0.191536 -15.6919 0.194435 0 -8.7287 10.7106 3.63789e-007 -1.56579 -4.62822e-008 -8.2078 -6.7517 -1.5996 1.51504 -12.6702 -6.86068 1.77636e-015 -44.3705 0.2862 -1.6455 29.0902 8.05079 8.88178e-016 -44.4277 -2.9838 -3.67198 -16.0218 -0.864287 1.77636e-015 -8.7287 10.7106 -1.44009e-007 -1.24255 2.7674e-007 
-1.67581 98.8913 -1.41281 -0.665479 0.3111 -2.18461 4.44089e-016 10.1816 0.1315 0.367658 8.52676 0.676244 2.22045e-016 10.0835 -1.0008 1.50262 0.265834 0.0592567 4.44089e-016 9.1 -1.3734 1.50056 0.264979 0.0721925 -8.88178e-016 16.6717 -2.5162 -2.77614 2.8061 1.00004 2.22045e-016 9.6179 1.685 -2.97566 -8.13429 2.02194 -1.77636e-015 17.8152 2.585 5.96354e-016 0 -3.97569e-016 3.0676 6.4095 9.2836 5.96354e-016 0 -3.97569e-016 -3.0676 6.4095 9.2835 5.96354e-016 0 -3.97569e-016 4.5704 10.946 -2.628 -12 0.25459 7.62237 10.5924 -0.5246 -2.2321 -57.35 47.4164 -5.04835 27.8415 -0.0001 0 -0.000211794 -7.79994e-006 -40.761 28.3288 0 0 15.3396 -42.5882 11.3476 2.4661 -1.575 2.6824 11.4902 10.7383 19.1937 3.2298 -1.8647 1.8647 0.0375777 6.76468 13.1968 2.6526 -1.5315 1.5315 2.40573 0.997898 4.16231 9.1093 -0.5171 2.2601 -22.5685 -0.527763 2.64456 3.6764 8.88178e-016 -3.55271e-015 -14.787 -0.228188 1.75834 2.8831 3.55271e-015 0 -7.39438 -0.0572864 0.886543 9.5334 -3.55271e-015 -3.55271e-015 -24.5692 -0.622074 4.11518 3.6982 0 0 -17.0865 -0.304129 2.0243 2.9509 -3.55271e-015 0 -9.65175 -0.324149 1.15551 9.1045 -0.0439 -1.8651 -27.1058 -0.748963 5.95234 3.154 0 0 -19.9381 -0.413047 2.34958 2.9377 7.10543e-015 1.77636e-015 -12.4824 -0.442454 1.48988 8.0778 -0.4887 -3.8061 -28.86 -0.782391 11.6512 3.6 3.55271e-015 0 -22.5721 1.03532 -1.16023 2.1142 -1.42109e-014 0 -14.6914 -0.225259 1.74721 -4.57 10.9462 -2.628 12 0.931434 -0.237339 -10.5928 -0.5248 -2.2321 58.5387 23.5804 8.58344 -27.8415 7.10543e-015 0 4.09538e-006 2.41201e-006 32.6778 -28.3288 0 0.0001 -18.673 -38.8306 -18.5379 -8.0767 -0.4885 -3.806 34.8274 -1.21806 -9.20709 -3.6 1.77636e-015 0.0001 29.1669 -0.881908 -3.39036 -2.1142 7.10543e-015 -3.55271e-015 22.0223 -0.507743 -2.60896 -9.1036 -0.0439 -1.8651 30.1032 -0.925715 -6.98435 -3.154 -3.55271e-015 0 24.8042 -0.642075 -2.91921 -2.9377 -7.10543e-015 -7.10543e-015 17.5388 -0.323447 -2.0965 -9.5325 0 0 24.822 -0.640217 -4.47394 -3.6982 1.9984e-015 0 18.9611 -0.377553 -2.26059 -2.9509 -3.55271e-015 0 11.7668 -0.146188 -1.42058 -9.1083 -0.5168 2.2601 20.5958 -0.444749 -2.44748 -3.6764 1.77636e-015 0 14.3058 -0.215737 -1.71893 -2.8831 8.88178e-015 0 7.15367 -0.0541492 -0.866196 -2.4648 -1.5727 2.6826 -8.21214 4.64571 -25.5669 -3.2298 -1.8647 1.8647 -1.26562 7.01236 -16.2379 -2.6526 -1.5314 1.5314 -2.87909 -0.0652404 -3.72621 8.2078 -6.7517 -1.5996 0.953622 -18.0091 5.68037 8.88178e-016 -44.3705 0.2846 4.14998 36.1654 -8.00944 0 -44.4279 -2.9822 0.0537871 -18.6479 0.278112 -8.88178e-016 -8.7287 10.7106 2.09671e-007 -3.31293 -8.97541e-007 -8.2078 -6.7517 -1.5996 2.24788 -16.6026 -6.01297 -8.88178e-016 -44.3705 0.2862 -2.26138 35.1097 7.50229 -8.88178e-016 -44.4277 -2.9838 -3.70861 -18.7384 -1.08662 0 -8.7287 10.7106 4.48905e-007 -1.92805 1.18599e-006 
